#N canvas 320 24 972 558 10;
#X obj 483 252 delwrite~ \$0-delay 1000;
#X obj 151 4 osc~ 0.05;
#X obj 151 29 *~ 10;
#X obj 231 29 *~ 10;
#X obj 151 54 +~ 11;
#X obj 231 54 +~ 21;
#X obj 231 4 osc~ 0.08;
#X obj 311 29 *~ 10;
#X obj 391 29 *~ 10;
#X obj 311 4 osc~ 0.13;
#X obj 311 54 +~ 13;
#X obj 391 4 osc~ 0.21;
#X obj 391 54 +~ 34;
#X obj 481 29 *~ 10;
#X obj 481 54 +~ 55;
#X obj 481 4 osc~ 0.03;
#X obj 561 54 +~ 87;
#X obj 561 4 osc~ 0.015;
#X obj 651 4 osc~ 0.12;
#X obj 651 54 +~ 67;
#X obj 651 29 *~ 5;
#X obj 561 29 *~ 15;
#X obj 151 82 vd~ \$0-delay;
#X obj 231 82 vd~ \$0-delay;
#X obj 311 82 vd~ \$0-delay;
#X obj 391 82 vd~ \$0-delay;
#X obj 481 82 vd~ \$0-delay;
#X obj 561 82 vd~ \$0-delay;
#X obj 651 82 vd~ \$0-delay;
#X obj 371 274 +~;
#X obj 371 213 *~ 0.15;
#X obj 483 214 adc~ 1;
#X obj 371 321 dac~ 1;
#X connect 1 0 2 0;
#X connect 2 0 4 0;
#X connect 3 0 5 0;
#X connect 4 0 22 0;
#X connect 5 0 23 0;
#X connect 6 0 3 0;
#X connect 7 0 10 0;
#X connect 8 0 12 0;
#X connect 9 0 7 0;
#X connect 10 0 24 0;
#X connect 11 0 8 0;
#X connect 12 0 25 0;
#X connect 13 0 14 0;
#X connect 14 0 26 0;
#X connect 15 0 13 0;
#X connect 16 0 27 0;
#X connect 17 0 21 0;
#X connect 18 0 20 0;
#X connect 19 0 28 0;
#X connect 20 0 19 0;
#X connect 21 0 16 0;
#X connect 22 0 30 0;
#X connect 23 0 30 0;
#X connect 24 0 30 0;
#X connect 25 0 30 0;
#X connect 26 0 30 0;
#X connect 27 0 30 0;
#X connect 28 0 30 0;
#X connect 29 0 32 0;
#X connect 30 0 29 0;
#X connect 31 0 0 0;
#X connect 31 0 29 1;
