#N canvas 661 386 731 558 10;
#X obj 51 83 delwrite~ \$0-delay 1000;
#X obj 263 27 osc~ 0.05;
#X obj 263 52 *~ 10;
#X obj 371 52 *~ 10;
#X obj 263 77 +~ 11;
#X obj 371 77 +~ 21;
#X obj 371 27 osc~ 0.08;
#X obj 264 168 *~ 10;
#X obj 372 168 *~ 10;
#X obj 264 143 osc~ 0.13;
#X obj 264 193 +~ 13;
#X obj 372 143 osc~ 0.21;
#X obj 372 193 +~ 34;
#X obj 265 292 *~ 10;
#X obj 265 317 +~ 55;
#X obj 265 267 osc~ 0.03;
#X obj 374 318 +~ 87;
#X obj 374 268 osc~ 0.015;
#X obj 269 387 osc~ 0.12;
#X obj 269 437 +~ 67;
#X obj 269 412 *~ 5;
#X obj 374 293 *~ 15;
#X obj 263 105 vd~ \$0-delay;
#X obj 371 105 vd~ \$0-delay;
#X obj 264 221 vd~ \$0-delay;
#X obj 372 221 vd~ \$0-delay;
#X obj 265 345 vd~ \$0-delay;
#X obj 374 346 vd~ \$0-delay;
#X obj 269 465 vd~ \$0-delay;
#X obj 25 502 dac~ 1;
#X obj 25 48 adc~ 1;
#X obj 115 109 adc~ 3;
#X obj 26 182 mix;
#X obj 169 109 adc~ 4;
#X obj 26 206 mix;
#X obj 26 231 mix;
#X obj 26 256 mix;
#X obj 26 281 mix;
#X obj 26 306 mix;
#X obj 26 331 mix;
#X obj 168 332 adc~ 10;
#X obj 114 332 adc~ 9;
#X obj 115 261 adc~ 7;
#X obj 169 261 adc~ 8;
#X obj 114 187 adc~ 5;
#X obj 168 187 adc~ 6;
#X obj 65 439 *~;
#X text 542 39 knobs 1-7 - LFOs;
#X text 24 20 dimension7 - a 7 oscillator chorus;
#X text 389 427 http://github.com/rhaleblian/pepper-dimension7;
#X connect 1 0 2 0;
#X connect 2 0 4 0;
#X connect 3 0 5 0;
#X connect 4 0 22 0;
#X connect 5 0 23 0;
#X connect 6 0 3 0;
#X connect 7 0 10 0;
#X connect 8 0 12 0;
#X connect 9 0 7 0;
#X connect 10 0 24 0;
#X connect 11 0 8 0;
#X connect 12 0 25 0;
#X connect 13 0 14 0;
#X connect 14 0 26 0;
#X connect 15 0 13 0;
#X connect 16 0 27 0;
#X connect 17 0 21 0;
#X connect 18 0 20 0;
#X connect 19 0 28 0;
#X connect 20 0 19 0;
#X connect 21 0 16 0;
#X connect 22 0 32 2;
#X connect 23 0 34 2;
#X connect 24 0 35 2;
#X connect 25 0 36 2;
#X connect 26 0 37 2;
#X connect 27 0 38 2;
#X connect 28 0 39 2;
#X connect 30 0 0 0;
#X connect 30 0 32 0;
#X connect 31 0 32 1;
#X connect 32 0 34 0;
#X connect 33 0 34 1;
#X connect 34 0 35 0;
#X connect 35 0 36 0;
#X connect 36 0 37 0;
#X connect 37 0 38 0;
#X connect 38 0 39 0;
#X connect 39 0 46 0;
#X connect 39 0 29 0;
#X connect 40 0 46 1;
#X connect 41 0 39 1;
#X connect 42 0 37 1;
#X connect 43 0 38 1;
#X connect 44 0 35 1;
#X connect 45 0 36 1;
#X connect 46 0 29 0;
